# xmcd
#
# Track frame offsets:
#	150
#	10921
#	27604
#	39997
#	47604
#	61796
#	79036
#	87928
#	102311
#	119029
#	133730
#	145219
#	156006
#	167890
#	180914
#	197747
#	212529
#	225694
#	243602
#	271143
#
# Disc length: 4485 seconds
#
# Revision: 0
# Processed by: cddbd v1.5.2PL0 Copyright (c) Steve Scherf et al.
# Submitted via: EasyCDDAExtractor 5.0.2.1
#
DISCID=0f118314
DTITLE=Messer Chups - Vamp Babes
DYEAR=2004
DGENRE=Surf
TTITLE0=Intro Vamp Babes...
TTITLE1=Super Megera
TTITLE2=Dreams Dreams Dreams
TTITLE3=???? ????? ??????
TTITLE4=??????? ??????
TTITLE5=Vurdalak Acid
TTITLE6=Orgia Of Dead 2
TTITLE7=?????? ??????
TTITLE8=??? ??? ???? ?? ????????
TTITLE9=Little Princess Of Professor Morbius
TTITLE10=Skeletions Dance
TTITLE11=Milanholen Man
TTITLE12=Go Satan Go
TTITLE13=Dark Story
TTITLE14=Tranzistor Bugi
TTITLE15=???????????? ?????
TTITLE16=????? ??????, ????? ???, ??????? ???????
TTITLE17=Vampire From Hollywood
TTITLE18=Bonus... Chaikovsky Beat
TTITLE19=Data Track
EXTD=
EXTT0=
EXTT1=
EXTT2=
EXTT3=
EXTT4=
EXTT5=
EXTT6=
EXTT7=
EXTT8=
EXTT9=
EXTT10=
EXTT11=
EXTT12=
EXTT13=
EXTT14=
EXTT15=
EXTT16=
EXTT17=
EXTT18=
EXTT19=
PLAYORDER=
